{"title":"Lucifer S02E02 Liar Liar 1080p WEB-DL HEVC DD5.1 x265","uid":15955451,"size":751089937,"categoryP":"video","categoryS":"hd___tv_shows","magnet":"?xt=urn:btih:d03010424180f804bca81dea01c2355e383be6ae&amp;dn=Lucifer+S02E02+Liar+Liar+1080p+WEB-DL+HEVC+DD5.1+x265&amp;tr=udp%3A%2F%2Ftracker.leechers-paradise.org%3A6969&amp;tr=udp%3A%2F%2Fzer0day.ch%3A1337&amp;tr=udp%3A%2F%2Fopen.demonii.com%3A1337&amp;tr=udp%3A%2F%2Ftracker.coppersurfer.tk%3A6969&amp;tr=udp%3A%2F%2Fexodus.desync.com%3A6969","seeders":16,"leechers":4,"uploader":"nayhtut","files":1,"time":1475613196,"description":"[Screenshots Gallery Link]\r\n\r\n[https://postimg.org/gallery/p41i24jo]\r\n\r\n\r\nSource:Lucifer S02E02 Liar Liar 1080p WEB-DL DD5.1 H264-VietHD(1.72 GB)\r\n\r\n \r\nComplete name: Lucifer.S02E02.Liar.Liar.Slutty.Dress.on.Fire.1080p.WEB-DL.HEVC.DD5.1.x265.mkv\r\nFormat                                   : Matroska\r\nFormat version                           : Version 4 / Version 2\r\nFile size                                : 716 MiB\r\nDuration                                 : 43mn 58s\r\nOverall bit rate                         : 2 277 Kbps\r\nWriting application                      : Lavf57.25.100\r\nWriting library                          : Lavf57.25.100\r\n\r\nVideo\r\n\r\nID                                       : 1\r\nFormat                                   : V_MPEGH/ISO/HEVC\r\nCodec ID                                 : V_MPEGH/ISO/HEVC\r\nDuration                                 : 43mn 58s\r\nBit rate                                 : 1 848 Kbps\r\nWidth                                    : 1 908 pixels\r\nHeight                                   : 1 076 pixels\r\nDisplay aspect ratio                     : 16:9\r\nFrame rate                               : 25.000 fps\r\nBits/(Pixel*Frame)                       : 0.036\r\nStream size                              : 581 MiB (81%)\r\nWriting library                          : Lavc57.48.101 libx265\r\nLanguage                                 : English\r\nDefault                                  : Yes\r\nForced                                   : No\r\nDURATION                                 : 00:43:58.411000000\r\n\r\nAudio\r\n\r\nID                                       : 2\r\nFormat                                   : AC-3\r\nFormat/Info                              : Audio Coding 3\r\nMode extension                           : CM (complete main)\r\nFormat settings, Endianness              : Big\r\nCodec ID                                 : A_AC3\r\nDuration                                 : 43mn 58s\r\nBit rate mode                            : Constant\r\nBit rate                                 : 384 Kbps\r\nChannel(s)                               : 6 channels\r\nChannel positions                        : Front: L C R, Side: L R, LFE\r\nSampling rate                            : 48.0 KHz\r\nBit depth                                : 16 bits\r\nCompression mode                         : Lossy\r\nStream size                              : 121 MiB (17%)\r\nWriting library                          : Lavc57.24.102 ac3\r\nLanguage                                 : English\r\nDefault                                  : Yes\r\nForced                                   : No\r\nDURATION                                 : 00:43:58.463000000\r\n\r\nText\r\n\r\nID                                       : 3\r\nFormat                                   : ASS\r\nCodec ID                                 : S_TEXT/ASS\r\nLanguage                                 : English","torrent":{"xt":"urn:btih:d03010424180f804bca81dea01c2355e383be6ae","amp;dn":"Lucifer+S02E02+Liar+Liar+1080p+WEB-DL+HEVC+DD5.1+x265","amp;tr":["udp%3A%2F%2Ftracker.leechers-paradise.org%3A6969","udp%3A%2F%2Fzer0day.ch%3A1337","udp%3A%2F%2Fopen.demonii.com%3A1337","udp%3A%2F%2Ftracker.coppersurfer.tk%3A6969","udp%3A%2F%2Fexodus.desync.com%3A6969"],"infoHash":"d03010424180f804bca81dea01c2355e383be6ae","infoHashBuffer":{"type":"Buffer","data":[208,48,16,66,65,128,248,4,188,168,29,234,1,194,53,94,56,59,230,174]},"announce":[],"urlList":[]}}